Source: The.Boy.in.the.Striped.Pyjamas.2008.720p.BluRay.X264-AMIABLE

Subs: Arabic, Brazilian, Danish, Dutch, English, Finnish, Greek, Hebrew, Indonesian, Polish, Romanian, Servian, Spanish, Turkish and Vietnamese.

Sample and Screens included.

General
Complete name                    : The Boy in the Striped Pyjamas-720p MP4 AAC x264 BRRip 2008-CC.mp4
Format                           : MPEG-4
Format profile                   : Base Media
Codec ID                         : isom
File size                        : 1.91 GiB
Duration                         : 1h 34mn
Overall bit rate                 : 2 894 Kbps
Encoded date                     : UTC 2012-05-09 12:09:59

Video
ID                               : 1
Format                           : AVC
Format/Info                      : Advanced Video Codec
Format profile                   : High@L3.1
Format settings, CABAC           : Yes
Format settings, ReFrames        : 5 frames
Codec ID                         : avc1
Codec ID/Info                    : Advanced Video Coding
Duration                         : 1h 34mn
Bit rate mode                    : Variable
Bit rate                         : 2 509 Kbps
Nominal bit rate                 : 2 541 Kbps
Maximum bit rate                 : 32.7 Mbps
Width                            : 1 280 pixels
Height                           : 688 pixels
Display aspect ratio             : 1.860 16:9
Frame rate mode                  : Variable
Frame rate                       : 23.976 fps
Minimum frame rate               : 18.692 fps
Maximum frame rate               : 25.000 fps
Resolution                       : 24 bits
Colorimetry                      : 4:2:0
Scan type                        : Progressive
Bits/(Pixel*Frame)               : 0.119
Stream size                      : 1.66 GiB (87%)
Writing library                  : x264 core 112

Audio
ID                               : 2
Format                           : AAC
Format/Info                      : Advanced Audio Codec
Format version                   : Version 4
Format profile                   : LC
Format settings, SBR             : No
Codec ID                         : 40
Duration                         : 1h 34mn
Bit rate mode                    : Variable
Bit rate                         : 384 Kbps
Maximum bit rate                 : 690 Kbps
Channel(s)                       : 6 channels
Channel positions                : Front: L C R, Rear: L R, LFE
Sampling rate                    : 48.0 KHz
Resolution                       : 16 bits
Stream size                      : 257 MiB (13%)
Language                         : English

Enjoy...